<svg id="Capa_1" data-name="Capa 1" xmlns="http://www.w3.org/2000/svg" viewBox="0 0 1080 1080"><defs><style>.cls-1{fill:#c214e2;}</style></defs><title>Mesa de trabajo 1</title><path class="cls-1" d="M676.27,296.24Q634.8,256.16,577.71,246T454.3,256.8Q339.61,292.9,294.26,390t-5.78,222.76q42.19,134,138.43,186.47t223.34,12.44q87-27.4,133.21-90.54t47.71-154.73l-299.79,94.4L476.57,486.67,990.5,324.86l69.17,219.66q1.57,96.71-37.35,192.46T901.47,910.18q-81.93,77.45-203.5,115.7-143.7,45.25-276.07,17.83T191.42,924.19Q93.31,832.09,48.09,688.4T30.26,412.33Q57.65,280,149.78,181.85T385.57,38.51Q559.65-16.3,705.68,30.35T937.38,214Z"/></svg>